<?xml version="1.0" encoding="utf-8"?>
<!-- Generator: Adobe Illustrator 22.0.1, SVG Export Plug-In . SVG Version: 6.00 Build 0)  -->
<svg version="1.1" id="Layer_1" xmlns="http://www.w3.org/2000/svg" xmlns:xlink="http://www.w3.org/1999/xlink" x="0px" y="0px"
	 viewBox="0 0 52 49.6" style="enable-background:new 0 0 52 49.6;" xml:space="preserve">
<style type="text/css">
	.st0{fill:#FFFFFF;}
</style>
<g id="White">
	<path class="st0" d="M0,7.4C0,3.4,3.3,0,7.4,0s7.4,3.4,7.4,7.4s-3.3,7.3-7.4,7.3S0,11.4,0,7.4z M0,24.8c0-4,3.3-7.3,7.4-7.4
		c4.1,0,7.4,3.3,7.4,7.4c0,4.1-3.3,7.4-7.4,7.4S0,28.8,0,24.8z M0,42.2c0-4,3.3-7.4,7.4-7.4s7.4,3.3,7.4,7.4c0,4.1-3.3,7.4-7.4,7.4
		S0,46.2,0,42.2z M18.6,7.4C18.6,3.3,22,0,26,0c4,0,7.4,3.3,7.4,7.4S30,14.8,26,14.8C22,14.8,18.6,11.4,18.6,7.4z M18.6,24.8
		c0-4,3.4-7.3,7.4-7.4c4,0,7.4,3.3,7.4,7.4c0,4.1-3.4,7.4-7.4,7.4C22,32.2,18.6,28.8,18.6,24.8z M18.6,42.2c0-4,3.4-7.4,7.4-7.4
		c4,0,7.4,3.3,7.4,7.4c0,4.1-3.4,7.4-7.4,7.4C22,49.6,18.6,46.2,18.6,42.2z M37.3,7.4c0-4.1,3.3-7.3,7.4-7.4S52,3.3,52,7.4
		s-3.3,7.4-7.4,7.4S37.3,11.4,37.3,7.4z M37.3,24.8c0-4,3.3-7.3,7.4-7.4c4.1,0,7.4,3.3,7.4,7.4c0,4.1-3.3,7.4-7.4,7.4
		S37.3,28.8,37.3,24.8z M37.3,42.2c0-4,3.3-7.4,7.4-7.4s7.4,3.3,7.4,7.4c0,4.1-3.3,7.4-7.4,7.4S37.3,46.2,37.3,42.2z"/>
</g>
</svg>
